<svg width="787" height="132" viewBox="0 0 787 132" fill="none" xmlns="http://www.w3.org/2000/svg">
<path d="M47.2932 132C35.3215 132 25.3299 129.173 17.3141 123.52C9.29831 117.867 3.57892 109.493 0.160294 98.4C0.0519724 98.1868 0 97.8668 0 97.44C0 96.5868 0.532921 96 1.60314 95.68L19.7188 91.36C19.9312 91.2532 20.1998 91.2 20.5204 91.2C21.4823 91.2 22.1236 91.7332 22.4442 92.8C24.797 98.4532 27.895 102.613 31.7426 105.28C35.5901 107.84 40.7722 109.12 47.2932 109.12C53.4935 109.12 58.4633 108.107 62.2026 106.08C66.0502 103.947 67.974 100.48 67.974 95.68C67.974 90.9868 66.1022 87.2532 62.3629 84.48C58.7276 81.7068 53.6539 79.1468 47.1329 76.8L35.9108 72.8C25.6505 69.28 17.6348 64.5332 11.8634 58.56C6.092 52.48 3.20631 44.8532 3.20631 35.68C3.20631 30.4532 4.27652 25.6532 6.41262 21.28C8.65705 16.9068 11.7031 13.1732 15.5506 10.08C19.3982 6.88 23.8871 4.42682 29.0172 2.72001C34.2556 0.906818 39.9187 0 46.0107 0C56.6999 0 65.8379 2.50682 73.4247 7.52001C81.0116 12.5332 86.4103 20.3732 89.6166 31.04C89.7249 31.2532 89.7769 31.5732 89.7769 32C89.7769 32.8532 89.244 33.44 88.1738 33.76L69.0962 38.56C68.8839 38.6668 68.5633 38.72 68.1343 38.72C67.3847 38.72 66.7434 38.1868 66.2105 37.12C64.0744 31.8932 61.349 28.2132 58.0344 26.08C54.8281 23.9468 50.8202 22.88 46.0107 22.88C40.3476 22.88 35.8588 24 32.5441 26.24C29.2295 28.3732 27.5743 31.3068 27.5743 35.04C27.5743 38.9868 29.2858 42.4 32.7045 45.28C36.1231 48.0532 41.5738 50.6668 49.0567 53.12L58.0344 56.16C69.5771 59.8932 78.1822 64.8 83.8452 70.88C89.5083 76.96 92.342 85.2268 92.342 95.68C92.342 100.907 91.2198 105.76 88.9754 110.24C86.8393 114.72 83.7933 118.56 79.8374 121.76C75.8815 124.96 71.1283 127.467 65.5692 129.28C60.0102 131.093 53.9181 132 47.2932 132ZM112.455 129.6C110.96 129.6 110.211 128.853 110.211 127.36V42.08C110.211 40.5868 110.96 39.84 112.455 39.84H128.807C129.449 39.84 129.982 40 130.411 40.32C130.944 40.64 131.212 41.2268 131.212 42.08L131.693 52.8C134.899 48 139.016 44.3732 144.037 41.92C149.168 39.36 154.566 38.08 160.229 38.08C166.963 38.08 172.734 39.52 177.543 42.4C182.353 45.1732 185.988 49.2268 188.445 54.56C191.76 49.12 196.14 45.0132 201.591 42.24C207.15 39.4668 213.025 38.08 219.226 38.08C229.057 38.08 236.752 41.0132 242.311 46.88C247.974 52.7468 250.808 60.8532 250.808 71.2V127.36C250.808 128.853 250.058 129.6 248.563 129.6H230.448C228.953 129.6 228.203 128.853 228.203 127.36V80.32C228.203 72.8532 226.812 67.36 224.035 63.84C221.362 60.32 217.41 58.56 212.172 58.56C209.498 58.56 206.933 59.0932 204.477 60.16C202.02 61.12 199.827 62.6668 197.904 64.8C196.088 66.8268 194.589 69.44 193.415 72.64C192.345 75.84 191.812 79.5732 191.812 83.84V127.36C191.812 128.853 191.062 129.6 189.567 129.6H171.451C169.957 129.6 169.207 128.853 169.207 127.36V80.32C169.207 72.8532 167.816 67.36 165.039 63.84C162.365 60.32 158.414 58.56 153.175 58.56C150.502 58.56 147.937 59.0932 145.48 60.16C143.024 61.12 140.831 62.6668 138.907 64.8C136.984 66.8268 135.432 69.44 134.258 72.64C133.188 75.84 132.655 79.5732 132.655 83.84V127.36C132.655 128.853 131.905 129.6 130.411 129.6H112.455ZM310.372 131.36C303.959 131.36 298.131 130.187 292.897 127.84C287.767 125.6 283.382 122.453 279.751 118.4C276.116 114.347 273.282 109.44 271.255 103.68C269.331 97.92 268.369 91.6268 268.369 84.8C268.369 77.8668 269.331 71.5732 271.255 65.92C273.282 60.16 276.116 55.2532 279.751 51.2C283.382 47.04 287.767 43.84 292.897 41.6C298.131 39.2532 303.959 38.08 310.372 38.08C316.676 38.08 322.339 39.3068 327.365 41.76C332.387 44.2132 336.503 47.68 339.71 52.16L340.351 42.08C340.351 40.5868 341.152 39.84 342.756 39.84H358.948C360.551 39.84 361.352 40.5868 361.352 42.08V127.36C361.352 128.853 360.551 129.6 358.948 129.6H342.756C341.152 129.6 340.351 128.853 340.351 127.36L339.71 117.28C336.503 121.76 332.387 125.227 327.365 127.68C322.339 130.133 316.676 131.36 310.372 131.36ZM315.983 110.88C319.614 110.88 322.928 110.24 325.922 108.96C328.912 107.68 331.477 105.92 333.618 103.68C335.754 101.333 337.409 98.56 338.587 95.36C339.762 92.16 340.351 88.64 340.351 84.8C340.351 80.96 339.762 77.44 338.587 74.24C337.409 70.9332 335.754 68.16 333.618 65.92C331.477 63.5732 328.912 61.76 325.922 60.48C322.928 59.2 319.614 58.56 315.983 58.56C312.348 58.56 309.033 59.2 306.043 60.48C303.049 61.76 300.484 63.5732 298.348 65.92C296.208 68.16 294.553 70.9332 293.378 74.24C292.2 77.44 291.615 80.96 291.615 84.8C291.615 88.64 292.2 92.16 293.378 95.36C294.553 98.56 296.208 101.333 298.348 103.68C300.484 105.92 303.049 107.68 306.043 108.96C309.033 110.24 312.348 110.88 315.983 110.88ZM387.215 129.6C385.72 129.6 384.971 128.853 384.971 127.36V42.08C384.971 40.5868 385.72 39.84 387.215 39.84H403.567C404.209 39.84 404.742 40 405.171 40.32C405.703 40.64 405.972 41.2268 405.972 42.08L406.453 53.28C409.551 48.48 413.507 44.8532 418.316 42.4C423.234 39.84 428.416 38.56 433.867 38.56C435.15 38.56 436.272 38.6132 437.234 38.72C438.196 38.8268 439.106 38.9868 439.959 39.2C441.242 39.52 441.883 40.32 441.883 41.6V59.36C441.883 60.64 441.242 61.28 439.959 61.28C438.785 61.28 437.446 61.1732 435.951 60.96C434.56 60.7468 432.957 60.64 431.142 60.64C428.148 60.64 425.21 61.1732 422.324 62.24C419.439 63.2 416.874 64.64 414.629 66.56C412.493 68.48 410.73 70.88 409.339 73.76C408.056 76.5332 407.415 79.68 407.415 83.2V127.36C407.415 128.853 406.665 129.6 405.171 129.6H387.215ZM497.417 131.36C487.69 131.36 480.211 128.373 474.973 122.4C469.843 116.32 467.278 107.147 467.278 94.88V60H454.132C452.637 60 451.887 59.2532 451.887 57.76V42.08C451.887 40.5868 452.637 39.84 454.132 39.84H467.278V15.68C467.278 14.1868 468.027 13.44 469.522 13.44H487.638C489.133 13.44 489.882 14.1868 489.882 15.68V39.84H511.204C512.699 39.84 513.449 40.5868 513.449 42.08V57.76C513.449 59.2532 512.699 60 511.204 60H489.882V96.32C489.882 101.227 490.684 104.907 492.287 107.36C493.89 109.707 496.455 110.88 499.982 110.88C502.76 110.88 505.004 109.44 506.716 106.56C507.465 105.173 508.479 104.8 509.762 105.44L523.388 111.52C524.242 112.053 524.671 112.693 524.671 113.44C524.671 114.08 524.459 114.667 524.03 115.2C520.823 121.173 516.867 125.333 512.166 127.68C507.465 130.133 502.547 131.36 497.417 131.36ZM530.581 129.6C529.727 129.6 529.086 129.387 528.657 128.96C528.337 128.533 528.389 127.893 528.818 127.04L579.638 4.16001C580.067 2.98682 580.92 2.4 582.203 2.4H598.395C599.677 2.4 600.531 2.98682 600.96 4.16001L651.94 127.04C652.048 127.253 652.101 127.573 652.101 128C652.101 129.067 651.459 129.6 650.177 129.6H628.214C626.931 129.6 626.077 129.013 625.648 127.84L616.671 104.16H563.766L554.628 127.84C554.2 129.013 553.346 129.6 552.063 129.6H530.581ZM608.334 82.4L590.058 34.24L571.782 82.4H608.334ZM722.713 132C713.415 132 704.866 130.4 697.063 127.2C689.259 124.107 682.474 119.68 676.703 113.92C671.04 108.16 666.603 101.227 663.396 93.12C660.19 85.0132 658.587 76 658.587 66.08C658.587 56.0532 660.19 46.9868 663.396 38.88C666.603 30.7732 671.04 23.84 676.703 18.08C682.474 12.32 689.259 7.89319 697.063 4.8C704.866 1.6 713.415 0 722.713 0C732.012 0 740.56 1.6 748.364 4.8C756.271 7.89319 763.061 12.32 768.724 18.08C774.495 23.84 778.984 30.7732 782.19 38.88C785.397 46.9868 787 56.0532 787 66.08C787 76 785.397 85.0132 782.19 93.12C778.984 101.227 774.495 108.16 768.724 113.92C763.061 119.68 756.271 124.107 748.364 127.2C740.56 130.4 732.012 132 722.713 132ZM722.713 109.12C728.805 109.12 734.308 108.053 739.226 105.92C744.248 103.787 748.472 100.853 751.891 97.12C755.309 93.28 757.931 88.7468 759.746 83.52C761.67 78.1868 762.632 72.3732 762.632 66.08C762.632 59.7868 761.67 54.0268 759.746 48.8C757.931 43.4668 755.309 38.88 751.891 35.04C748.472 31.2 744.248 28.2132 739.226 26.08C734.308 23.9468 728.805 22.88 722.713 22.88C716.621 22.88 711.119 23.9468 706.201 26.08C701.283 28.2132 697.063 31.2 693.536 35.04C690.117 38.88 687.444 43.4668 685.52 48.8C683.704 54.0268 682.795 59.7868 682.795 66.08C682.795 72.3732 683.704 78.1868 685.52 83.52C687.444 88.7468 690.117 93.28 693.536 97.12C697.063 100.853 701.283 103.787 706.201 105.92C711.119 108.053 716.621 109.12 722.713 109.12Z" fill="black"/>
</svg>
