<svg width="1029" height="260" viewBox="0 0 1029 260" fill="none" xmlns="http://www.w3.org/2000/svg">
<path d="M289.293 196C277.321 196 267.33 193.173 259.314 187.52C251.298 181.867 245.579 173.493 242.16 162.4C242.052 162.187 242 161.867 242 161.44C242 160.587 242.533 160 243.603 159.68L261.719 155.36C261.931 155.253 262.2 155.2 262.52 155.2C263.482 155.2 264.124 155.733 264.444 156.8C266.797 162.453 269.895 166.613 273.743 169.28C277.59 171.84 282.772 173.12 289.293 173.12C295.494 173.12 300.463 172.107 304.203 170.08C308.05 167.947 309.974 164.48 309.974 159.68C309.974 154.987 308.102 151.253 304.363 148.48C300.728 145.707 295.654 143.147 289.133 140.8L277.911 136.8C267.651 133.28 259.635 128.533 253.863 122.56C248.092 116.48 245.206 108.853 245.206 99.68C245.206 94.4532 246.277 89.6532 248.413 85.28C250.657 80.9068 253.703 77.1732 257.551 74.08C261.398 70.88 265.887 68.4268 271.017 66.72C276.256 64.9068 281.919 64 288.011 64C298.7 64 307.838 66.5068 315.425 71.52C323.012 76.5332 328.41 84.3732 331.617 95.04C331.725 95.2532 331.777 95.5732 331.777 96C331.777 96.8532 331.244 97.44 330.174 97.76L311.096 102.56C310.884 102.667 310.563 102.72 310.134 102.72C309.385 102.72 308.743 102.187 308.211 101.12C306.074 95.8932 303.349 92.2132 300.034 90.08C296.828 87.9468 292.82 86.88 288.011 86.88C282.348 86.88 277.859 88 274.544 90.24C271.229 92.3732 269.574 95.3068 269.574 99.04C269.574 102.987 271.286 106.4 274.704 109.28C278.123 112.053 283.574 114.667 291.057 117.12L300.034 120.16C311.577 123.893 320.182 128.8 325.845 134.88C331.508 140.96 334.342 149.227 334.342 159.68C334.342 164.907 333.22 169.76 330.975 174.24C328.839 178.72 325.793 182.56 321.837 185.76C317.881 188.96 313.128 191.467 307.569 193.28C302.01 195.093 295.918 196 289.293 196ZM354.455 193.6C352.96 193.6 352.211 192.853 352.211 191.36V106.08C352.211 104.587 352.96 103.84 354.455 103.84H370.807C371.449 103.84 371.982 104 372.411 104.32C372.944 104.64 373.212 105.227 373.212 106.08L373.693 116.8C376.899 112 381.016 108.373 386.037 105.92C391.168 103.36 396.566 102.08 402.229 102.08C408.963 102.08 414.734 103.52 419.543 106.4C424.353 109.173 427.988 113.227 430.445 118.56C433.76 113.12 438.14 109.013 443.591 106.24C449.15 103.467 455.025 102.08 461.226 102.08C471.057 102.08 478.752 105.013 484.311 110.88C489.974 116.747 492.808 124.853 492.808 135.2V191.36C492.808 192.853 492.058 193.6 490.563 193.6H472.448C470.953 193.6 470.203 192.853 470.203 191.36V144.32C470.203 136.853 468.812 131.36 466.035 127.84C463.362 124.32 459.41 122.56 454.172 122.56C451.498 122.56 448.933 123.093 446.477 124.16C444.02 125.12 441.827 126.667 439.904 128.8C438.088 130.827 436.589 133.44 435.415 136.64C434.345 139.84 433.812 143.573 433.812 147.84V191.36C433.812 192.853 433.062 193.6 431.567 193.6H413.451C411.957 193.6 411.207 192.853 411.207 191.36V144.32C411.207 136.853 409.816 131.36 407.039 127.84C404.365 124.32 400.414 122.56 395.175 122.56C392.502 122.56 389.937 123.093 387.48 124.16C385.024 125.12 382.831 126.667 380.907 128.8C378.984 130.827 377.432 133.44 376.258 136.64C375.188 139.84 374.655 143.573 374.655 147.84V191.36C374.655 192.853 373.905 193.6 372.411 193.6H354.455ZM552.372 195.36C545.959 195.36 540.131 194.187 534.897 191.84C529.767 189.6 525.382 186.453 521.751 182.4C518.116 178.347 515.282 173.44 513.255 167.68C511.331 161.92 510.369 155.627 510.369 148.8C510.369 141.867 511.331 135.573 513.255 129.92C515.282 124.16 518.116 119.253 521.751 115.2C525.382 111.04 529.767 107.84 534.897 105.6C540.131 103.253 545.959 102.08 552.372 102.08C558.676 102.08 564.339 103.307 569.365 105.76C574.387 108.213 578.503 111.68 581.71 116.16L582.351 106.08C582.351 104.587 583.152 103.84 584.756 103.84H600.948C602.551 103.84 603.352 104.587 603.352 106.08V191.36C603.352 192.853 602.551 193.6 600.948 193.6H584.756C583.152 193.6 582.351 192.853 582.351 191.36L581.71 181.28C578.503 185.76 574.387 189.227 569.365 191.68C564.339 194.133 558.676 195.36 552.372 195.36ZM557.983 174.88C561.614 174.88 564.928 174.24 567.922 172.96C570.912 171.68 573.477 169.92 575.618 167.68C577.754 165.333 579.409 162.56 580.587 159.36C581.762 156.16 582.351 152.64 582.351 148.8C582.351 144.96 581.762 141.44 580.587 138.24C579.409 134.933 577.754 132.16 575.618 129.92C573.477 127.573 570.912 125.76 567.922 124.48C564.928 123.2 561.614 122.56 557.983 122.56C554.348 122.56 551.033 123.2 548.043 124.48C545.049 125.76 542.484 127.573 540.348 129.92C538.208 132.16 536.553 134.933 535.378 138.24C534.2 141.44 533.615 144.96 533.615 148.8C533.615 152.64 534.2 156.16 535.378 159.36C536.553 162.56 538.208 165.333 540.348 167.68C542.484 169.92 545.049 171.68 548.043 172.96C551.033 174.24 554.348 174.88 557.983 174.88ZM629.215 193.6C627.72 193.6 626.971 192.853 626.971 191.36V106.08C626.971 104.587 627.72 103.84 629.215 103.84H645.567C646.209 103.84 646.742 104 647.171 104.32C647.703 104.64 647.972 105.227 647.972 106.08L648.453 117.28C651.551 112.48 655.507 108.853 660.316 106.4C665.234 103.84 670.416 102.56 675.867 102.56C677.15 102.56 678.272 102.613 679.234 102.72C680.196 102.827 681.106 102.987 681.959 103.2C683.242 103.52 683.883 104.32 683.883 105.6V123.36C683.883 124.64 683.242 125.28 681.959 125.28C680.785 125.28 679.446 125.173 677.951 124.96C676.56 124.747 674.957 124.64 673.142 124.64C670.148 124.64 667.21 125.173 664.324 126.24C661.439 127.2 658.874 128.64 656.629 130.56C654.493 132.48 652.73 134.88 651.339 137.76C650.056 140.533 649.415 143.68 649.415 147.2V191.36C649.415 192.853 648.665 193.6 647.171 193.6H629.215ZM739.417 195.36C729.69 195.36 722.211 192.373 716.973 186.4C711.843 180.32 709.278 171.147 709.278 158.88V124H696.132C694.637 124 693.887 123.253 693.887 121.76V106.08C693.887 104.587 694.637 103.84 696.132 103.84H709.278V79.68C709.278 78.1868 710.027 77.44 711.522 77.44H729.638C731.133 77.44 731.882 78.1868 731.882 79.68V103.84H753.204C754.699 103.84 755.449 104.587 755.449 106.08V121.76C755.449 123.253 754.699 124 753.204 124H731.882V160.32C731.882 165.227 732.684 168.907 734.287 171.36C735.89 173.707 738.455 174.88 741.982 174.88C744.76 174.88 747.004 173.44 748.716 170.56C749.465 169.173 750.479 168.8 751.762 169.44L765.388 175.52C766.242 176.053 766.671 176.693 766.671 177.44C766.671 178.08 766.459 178.667 766.03 179.2C762.823 185.173 758.867 189.333 754.166 191.68C749.465 194.133 744.547 195.36 739.417 195.36ZM772.581 193.6C771.727 193.6 771.086 193.387 770.657 192.96C770.337 192.533 770.389 191.893 770.818 191.04L821.638 68.16C822.067 66.9868 822.92 66.4 824.203 66.4H840.395C841.677 66.4 842.531 66.9868 842.96 68.16L893.94 191.04C894.048 191.253 894.101 191.573 894.101 192C894.101 193.067 893.459 193.6 892.177 193.6H870.214C868.931 193.6 868.077 193.013 867.648 191.84L858.671 168.16H805.766L796.628 191.84C796.2 193.013 795.346 193.6 794.063 193.6H772.581ZM850.334 146.4L832.058 98.24L813.782 146.4H850.334ZM964.713 196C955.415 196 946.866 194.4 939.063 191.2C931.259 188.107 924.474 183.68 918.703 177.92C913.04 172.16 908.603 165.227 905.396 157.12C902.19 149.013 900.587 140 900.587 130.08C900.587 120.053 902.19 110.987 905.396 102.88C908.603 94.7732 913.04 87.84 918.703 82.08C924.474 76.32 931.259 71.8932 939.063 68.8C946.866 65.6 955.415 64 964.713 64C974.012 64 982.56 65.6 990.364 68.8C998.271 71.8932 1005.06 76.32 1010.72 82.08C1016.5 87.84 1020.98 94.7732 1024.19 102.88C1027.4 110.987 1029 120.053 1029 130.08C1029 140 1027.4 149.013 1024.19 157.12C1020.98 165.227 1016.5 172.16 1010.72 177.92C1005.06 183.68 998.271 188.107 990.364 191.2C982.56 194.4 974.012 196 964.713 196ZM964.713 173.12C970.805 173.12 976.308 172.053 981.226 169.92C986.248 167.787 990.472 164.853 993.891 161.12C997.309 157.28 999.931 152.747 1001.75 147.52C1003.67 142.187 1004.63 136.373 1004.63 130.08C1004.63 123.787 1003.67 118.027 1001.75 112.8C999.931 107.467 997.309 102.88 993.891 99.04C990.472 95.2 986.248 92.2132 981.226 90.08C976.308 87.9468 970.805 86.88 964.713 86.88C958.621 86.88 953.119 87.9468 948.201 90.08C943.283 92.2132 939.063 95.2 935.536 99.04C932.117 102.88 929.444 107.467 927.52 112.8C925.704 118.027 924.795 123.787 924.795 130.08C924.795 136.373 925.704 142.187 927.52 147.52C929.444 152.747 932.117 157.28 935.536 161.12C939.063 164.853 943.283 167.787 948.201 169.92C953.119 172.053 958.621 173.12 964.713 173.12Z" fill="black"/>
<path d="M89.5 24.375C51.0478 24.375 24.4091 51.8375 24.4091 85.3125C24.4091 101.303 31.3087 111.719 40.4215 122.753L43.9038 126.864C47.5324 131.154 51.552 135.899 54.8551 140.644C59.4766 147.323 63.5938 155.204 64.9607 164.856C65.2866 167.992 64.3827 171.132 62.4395 173.616C60.4964 176.101 57.6649 177.736 54.5392 178.18C51.414 178.624 48.238 177.841 45.6782 175.996C43.1184 174.151 41.3744 171.387 40.812 168.285C40.1611 163.703 38.1598 159.396 34.7911 154.521C32.0312 150.698 29.0878 147.011 25.9713 143.471L21.6102 138.271C11.4074 125.938 0 109.948 0 85.3125C0 37.5375 38.4522 0 89.5 0C140.548 0 179 37.5375 179 85.3125C179 109.948 167.593 125.938 157.39 138.271C155.849 140.134 154.396 141.863 153.029 143.455C149.66 147.436 146.796 150.816 144.225 154.521C140.84 159.396 138.855 163.703 138.204 168.285C137.604 171.356 135.846 174.08 133.292 175.893C130.738 177.707 127.585 178.472 124.482 178.029C121.38 177.587 118.567 175.972 116.623 173.517C114.68 171.063 113.755 167.956 114.039 164.84C115.406 155.204 119.523 147.323 124.144 140.644C127.448 135.899 131.468 131.154 135.096 126.864L138.562 122.753C147.691 111.719 154.591 101.303 154.591 85.3125C154.591 51.8375 127.952 24.375 89.5 24.375ZM52.8864 195H126.114C129.35 195 132.455 196.284 134.743 198.57C137.032 200.855 138.318 203.955 138.318 207.188C138.318 210.42 137.032 213.52 134.743 215.805C132.455 218.091 129.35 219.375 126.114 219.375H52.8864C49.6496 219.375 46.5452 218.091 44.2566 215.805C41.9676 213.52 40.6818 210.42 40.6818 207.188C40.6818 203.955 41.9676 200.855 44.2566 198.57C46.5452 196.284 49.6496 195 52.8864 195ZM56.9545 247.815C56.9545 244.58 58.2403 241.48 60.5293 239.195C62.8179 236.909 65.9223 235.625 69.1591 235.625H109.841C113.078 235.625 116.182 236.909 118.471 239.195C120.76 241.48 122.045 244.58 122.045 247.815C122.045 251.043 120.76 254.146 118.471 256.429C116.182 258.717 113.078 260 109.841 260H69.1591C65.9223 260 62.8179 258.717 60.5293 256.429C58.2403 254.146 56.9545 251.043 56.9545 247.815Z" fill="#007AC2"/>
</svg>
